<svg width="39" height="39" viewBox="0 0 39 39" fill="none" xmlns="http://www.w3.org/2000/svg">
<rect width="39" height="39" rx="19.5" fill="url(#paint0_linear_19_49)"/>
<path d="M17.5087 21.5878H14.5617C14.3401 21.5878 14.1761 21.4908 14.0697 21.2967C13.9634 21.1026 13.9787 20.9129 14.1157 20.7276L20.4289 11.7832C20.5224 11.66 20.6394 11.5755 20.7797 11.5297C20.92 11.484 21.0604 11.491 21.2007 11.551C21.341 11.6055 21.4521 11.6971 21.534 11.8258C21.6158 11.9544 21.6451 12.0918 21.6217 12.2379L20.8582 18.1861H24.43C24.6717 18.1861 24.8421 18.2902 24.9412 18.4985C25.0403 18.7067 25.0141 18.9035 24.8627 19.0889L17.908 27.258C17.8144 27.3725 17.6938 27.4469 17.5463 27.4812C17.3987 27.5156 17.262 27.5028 17.1361 27.4428C17.0047 27.3883 16.9031 27.2994 16.8312 27.1762C16.7594 27.053 16.7324 26.9156 16.7502 26.7641L17.5087 21.5878Z" fill="#603CFF"/>
<defs>
<linearGradient id="paint0_linear_19_49" x1="19.5" y1="0" x2="19.5" y2="39" gradientUnits="userSpaceOnUse">
<stop stop-color="#FBFBFF"/>
<stop offset="1" stop-color="#CACAFF"/>
</linearGradient>
</defs>
</svg>
